# xmcd CD database file
#
# Track frame offsets:
#	150
#	14683
#	31375
#
# Disc length: 730 seconds
#
# Revision: 0
# Processed by: cddbd v1.5.1PL0 Copyright (c) Steve Scherf et al.
# Submitted via: CDex 1.51
#
DISCID=1e02d803
DTITLE=NIRGILIS - サンダー
DYEAR=2003
DGENRE=Pop
TTITLE0=サンダー
TTITLE1=サンダー? Featuring モユニジュモ(イルリメ)
TTITLE2=Kiss
EXTD=YEAR: 2003
EXTT0=
EXTT1=
EXTT2=
PLAYORDER=
